<mxfile host="app.diagrams.net" agent="Mozilla/5.0 (Windows NT 10.0; Win64; x64) AppleWebKit/537.36 (KHTML, like Gecko) Chrome/136.0.0.0 Safari/537.36" version="27.0.9">
  <diagram name="‫עמוד-1‬" id="z5Jm914-xjCl6LGybNFU">
    <mxGraphModel dx="1042" dy="562" grid="1" gridSize="10" guides="1" tooltips="1" connect="1" arrows="1" fold="1" page="1" pageScale="1" pageWidth="827" pageHeight="1169" math="0" shadow="0">
      <root>
        <mxCell id="0" />
        <mxCell id="1" parent="0" />
        <mxCell id="_siQIBJ36OQ2N0jEfNCD-1" value="&lt;pre class=&quot;notranslate&quot; style=&quot;box-sizing: border-box; font-family: ui-monospace, SFMono-Regular, &amp;quot;SF Mono&amp;quot;, Menlo, Consolas, &amp;quot;Liberation Mono&amp;quot;, monospace; font-size: 13.6px; margin-top: 0px; margin-bottom: 0px; overflow-wrap: normal; padding: 16px; overflow: auto; line-height: 1.45; color: rgb(31, 35, 40); background-color: rgb(246, 248, 250); border-radius: 6px; font-style: normal; font-variant-ligatures: normal; font-variant-caps: normal; font-weight: 400; letter-spacing: normal; orphans: 2; text-align: start; text-indent: 0px; text-transform: none; widows: 2; word-spacing: 0px; -webkit-text-stroke-width: 0px; text-decoration-thickness: initial; text-decoration-style: initial; text-decoration-color: initial;&quot;&gt;&lt;code style=&quot;box-sizing: border-box; font-family: ui-monospace, SFMono-Regular, &amp;quot;SF Mono&amp;quot;, Menlo, Consolas, &amp;quot;Liberation Mono&amp;quot;, monospace; font-size: 13.6px; padding: 0px; margin: 0px; white-space: pre; background: transparent; border-radius: 6px; word-break: normal; border: 0px; display: inline; overflow: visible; line-height: inherit; overflow-wrap: normal;&quot;&gt;+---------------------------------------------------------------+&#xa;|                        RubberDuck                             |&#xa;+---------------------------------------------------------------+&#xa;| - __color: str = &quot;yellow&quot;               @class-variable       |&#xa;| - __quack_volume: int                                         |&#xa;+---------------------------------------------------------------+&#xa;| + __init__(quack_volume=5)                                    |&#xa;| + squeak(): None                         [@static-method]     |&#xa;| + get_color(): str                       [@class-method]      |&#xa;| + boost_volume(): None                   [@instance-method]   |&#xa;| + quack_volume: int                      [@property]          |&#xa;| + quack_volume(value: int): None         [@setter]            |&#xa;| + __str__(): str                         [@instance-method]   |&#xa;+---------------------------------------------------------------+&lt;/code&gt;&lt;/pre&gt;" style="text;whiteSpace=wrap;html=1;" vertex="1" parent="1">
          <mxGeometry x="160" y="150" width="530" height="330" as="geometry" />
        </mxCell>
      </root>
    </mxGraphModel>
  </diagram>
</mxfile>
